<svg xmlns="http://www.w3.org/2000/svg" width="212" height="36" fill="none"><path fill="#0D0" d="M1.4 22.36c-.333-.56-.207-1.013.38-1.36l11.28-6.36v.62L1.78 9.02c-.573-.347-.7-.807-.38-1.38.333-.573.787-.7 1.36-.38l11.7 6.52c.467.267.7.647.7 1.14 0 .573-.233.987-.7 1.24l-11.7 6.58c-.573.333-1.027.207-1.36-.38Zm42.942-13.3c2.147 0 3.68.547 4.6 1.64.933 1.093 1.4 2.9 1.4 5.42v10.86c0 .693-.347 1.04-1.04 1.04-.707 0-1.06-.347-1.06-1.04V16.12c0-1.76-.3-3.027-.9-3.8-.6-.773-1.6-1.16-3-1.16h-1.66c-1.747 0-3 .387-3.76 1.16-.747.773-1.12 2.04-1.12 3.8v10.86c0 .693-.347 1.04-1.04 1.04-.707 0-1.06-.347-1.06-1.04V16.12c0-1.76-.3-3.027-.9-3.8-.6-.773-1.6-1.16-3-1.16h-1.66c-1.747 0-3 .387-3.76 1.16-.747.773-1.12 2.04-1.12 3.8v10.86c0 .693-.347 1.04-1.04 1.04-.707 0-1.06-.347-1.06-1.04V10.14c0-.693.353-1.04 1.06-1.04.693 0 1.04.347 1.04 1.04v1.56c.587-.947 1.28-1.62 2.08-2.02.813-.413 1.84-.62 3.08-.62h1.38c1.4 0 2.52.247 3.36.74.853.48 1.526 1.273 2.02 2.38.587-1.107 1.306-1.9 2.16-2.38.853-.493 1.967-.74 3.34-.74h1.66Zm13.717-3.6c-.92 0-1.38-.473-1.38-1.42v-.9c0-.92.46-1.38 1.38-1.38h.9c.893 0 1.34.46 1.34 1.38v.9c0 .947-.447 1.42-1.34 1.42h-.9Zm.46 22.54c-.707 0-1.06-.353-1.06-1.06v-16.8c0-.693.353-1.04 1.06-1.04.693 0 1.04.347 1.04 1.04v16.8c0 .707-.347 1.06-1.04 1.06Zm15.19 0c-2.493 0-4.32-.58-5.48-1.74-1.16-1.16-1.74-2.987-1.74-5.48v-4.52c0-2.493.573-4.313 1.72-5.46 1.16-1.16 2.993-1.727 5.5-1.7h3.28c1.96 0 3.453.333 4.48 1 1.04.653 1.66 1.687 1.86 3.1.04.36-.04.633-.24.82-.187.187-.453.28-.8.28-.32 0-.56-.08-.72-.24-.16-.173-.28-.42-.36-.74-.147-.773-.54-1.32-1.18-1.64-.64-.32-1.653-.48-3.04-.48h-3.28c-1.907-.027-3.24.333-4 1.08-.747.733-1.12 2.06-1.12 3.98v4.52c0 1.907.373 3.24 1.12 4 .76.747 2.093 1.12 4 1.12h3.28c1.387 0 2.4-.16 3.04-.48.64-.32 1.033-.873 1.18-1.66.08-.32.2-.56.36-.72.16-.173.4-.26.72-.26.347 0 .613.1.8.3.2.187.28.453.24.8-.2 1.413-.82 2.453-1.86 3.12-1.027.667-2.52 1-4.48 1h-3.28Zm17.232 0c-.707 0-1.06-.353-1.06-1.06v-16.8c0-.693.353-1.04 1.06-1.04.693 0 1.04.347 1.04 1.04v3.08a7.148 7.148 0 0 1 3-3.06c1.32-.707 2.88-1.06 4.68-1.06.706 0 1.06.347 1.06 1.04 0 .707-.354 1.06-1.06 1.06-2.374 0-4.214.54-5.52 1.62-1.307 1.067-2.027 2.593-2.16 4.58v9.54c0 .707-.347 1.06-1.04 1.06Zm19.917 0c-2.494 0-4.32-.573-5.48-1.72-1.16-1.16-1.74-2.98-1.74-5.46V16.3c0-2.52.58-4.353 1.74-5.5 1.16-1.16 2.986-1.727 5.48-1.7h3.28c2.493 0 4.313.58 5.46 1.74 1.16 1.147 1.74 2.967 1.74 5.46v4.48c0 2.493-.58 4.32-1.74 5.48-1.147 1.16-2.967 1.74-5.46 1.74h-3.28Zm-5.12-7.18c0 1.88.373 3.2 1.12 3.96.76.747 2.093 1.12 4 1.12h3.28c1.906 0 3.233-.373 3.98-1.12.746-.76 1.12-2.093 1.12-4V16.3c0-1.907-.374-3.233-1.12-3.98-.747-.747-2.074-1.12-3.98-1.12h-3.28c-1.28-.013-2.294.14-3.04.46a2.94 2.94 0 0 0-1.6 1.6c-.32.747-.48 1.76-.48 3.04v4.52ZM126.647 28c-.773 0-1.16-.393-1.16-1.18v-.76c0-.76.387-1.14 1.16-1.14h.74c.76 0 1.14.38 1.14 1.14v.76c0 .787-.38 1.18-1.14 1.18h-.74Zm9.606 0c-.707 0-1.06-.353-1.06-1.06V1.3c0-.693.353-1.04 1.06-1.04.693 0 1.04.347 1.04 1.04v10.58c.6-.92 1.453-1.62 2.56-2.1 1.12-.48 2.56-.72 4.32-.72h1.52c2.493 0 4.313.58 5.46 1.74 1.16 1.16 1.74 2.987 1.74 5.48v4.5c0 2.493-.58 4.32-1.74 5.48-1.147 1.16-2.967 1.74-5.46 1.74h-1.52c-1.76 0-3.2-.233-4.32-.7-1.107-.48-1.96-1.187-2.56-2.12v1.76c0 .707-.347 1.06-1.04 1.06Zm7.92-2.1h1.52c1.907 0 3.233-.373 3.98-1.12.747-.76 1.12-2.093 1.12-4v-4.5c0-1.907-.38-3.233-1.14-3.98-.747-.76-2.067-1.14-3.96-1.14h-1.52c-2.08 0-3.747.327-5 .98-1.253.653-1.88 1.647-1.88 2.98v6.9c.027 1.293.667 2.267 1.92 2.92 1.253.64 2.907.96 4.96.96Zm21.169 2.1c-1.894 0-3.287-.44-4.18-1.32-.88-.88-1.32-2.26-1.32-4.14V1.3c0-.693.353-1.04 1.06-1.04.693 0 1.04.347 1.04 1.04v21.24c0 1.293.24 2.18.72 2.66.48.467 1.366.7 2.66.7.72 0 1.08.347 1.08 1.04.013.707-.34 1.06-1.06 1.06Zm12.039 0c-2.493 0-4.32-.573-5.48-1.72-1.16-1.16-1.74-2.98-1.74-5.46V16.3c0-2.52.58-4.353 1.74-5.5 1.16-1.16 2.987-1.727 5.48-1.7h3.28c2.493 0 4.313.58 5.46 1.74 1.16 1.147 1.74 2.967 1.74 5.46v4.48c0 2.493-.58 4.32-1.74 5.48-1.147 1.16-2.967 1.74-5.46 1.74h-3.28Zm-5.12-7.18c0 1.88.373 3.2 1.12 3.96.76.747 2.093 1.12 4 1.12h3.28c1.907 0 3.233-.373 3.98-1.12.747-.76 1.12-2.093 1.12-4V16.3c0-1.907-.373-3.233-1.12-3.98-.747-.747-2.073-1.12-3.98-1.12h-3.28c-1.28-.013-2.293.14-3.04.46a2.94 2.94 0 0 0-1.6 1.6c-.32.747-.48 1.76-.48 3.04v4.52ZM199.403 36c-1.574 0-2.774-.327-3.6-.98-.827-.64-1.314-1.653-1.46-3.04-.04-.347.033-.62.22-.82.186-.2.446-.3.78-.3.333 0 .586.087.76.26.173.173.286.433.34.78.093.773.366 1.3.82 1.58.453.28 1.166.42 2.14.42h7.44c1.173 0 1.966-.213 2.38-.64.426-.427.64-1.227.64-2.4v-5.72c-.614.933-1.48 1.647-2.6 2.14-1.12.48-2.54.72-4.26.72h-1.52c-2.494 0-4.32-.573-5.48-1.72-1.16-1.16-1.74-2.98-1.74-5.46V16.3c0-2.52.573-4.347 1.72-5.48 1.16-1.147 2.993-1.72 5.5-1.72h3.28c1.306 0 2.366.173 3.18.52a4.153 4.153 0 0 1 1.92 1.62v-1.1c0-.693.353-1.04 1.06-1.04.693 0 1.04.347 1.04 1.04v20.72c0 1.76-.414 3.053-1.24 3.88-.827.84-2.12 1.26-3.88 1.26h-7.44Zm2.08-10.1h1.52c2.08 0 3.74-.327 4.98-.98 1.253-.653 1.88-1.647 1.88-2.98v-6.68c0-1.507-.42-2.56-1.26-3.16-.84-.6-2.12-.9-3.84-.9h-3.28c-1.907 0-3.24.373-4 1.12-.747.733-1.12 2.06-1.12 3.98v4.52c0 1.88.373 3.2 1.12 3.96.76.747 2.093 1.12 4 1.12Z"/></svg>